<svg xmlns="http://www.w3.org/2000/svg" x="0px" y="0px"
width="24" height="24"
viewBox="0 0 172 172"
style=" fill:#000000;"><g fill="none" fill-rule="nonzero" stroke="none" stroke-width="1" stroke-linecap="butt" stroke-linejoin="miter" stroke-miterlimit="10" stroke-dasharray="" stroke-dashoffset="0" font-family="none" font-weight="none" font-size="none" text-anchor="none" style="mix-blend-mode: normal"><path d="M0,172v-172h172v172z" fill="none"></path><g fill="#fc2467"><path d="M156.29492,0c-1.12069,0 -2.24059,0.43134 -3.09343,1.28776l-8.76237,8.74837l17.52474,17.52474l8.74837,-8.76237c1.71284,-1.71283 1.71284,-4.48118 0,-6.18685l-11.32389,-11.32389c-0.85642,-0.85642 -1.97273,-1.28776 -3.09342,-1.28776zM138.23828,16.23698l-52.23828,52.25228v17.51074h17.51074l52.25228,-52.25228zM35.83333,21.5c-7.90483,0 -14.33333,6.4285 -14.33333,14.33333v100.33333c0,7.90483 6.4285,14.33333 14.33333,14.33333h100.33333c7.90483,0 14.33333,-6.4285 14.33333,-14.33333v-76.8877l-14.31934,14.33333v62.55436h-100.34733v-71.66667h33.8877l14.33334,-14.33333h-48.22103v-14.33333h62.55436l14.33333,-14.33333z"></path></g></g></svg>
