<svg xmlns="http://www.w3.org/2000/svg" x="0px" y="0px"
width="50" height="50"
viewBox="0 0 172 172"
style=" fill:#000000;"><g fill="none" fill-rule="nonzero" stroke="none" stroke-width="1" stroke-linecap="butt" stroke-linejoin="miter" stroke-miterlimit="10" stroke-dasharray="" stroke-dashoffset="0" font-family="none" font-weight="none" font-size="none" text-anchor="none" style="mix-blend-mode: normal"><path d="M0,172v-172h172v172z" fill="none"></path><g fill="#ffffff"><path d="M22.93333,28.66667c-6.33533,0 -11.46667,5.13133 -11.46667,11.46667v91.73333c0,6.33533 5.13133,11.46667 11.46667,11.46667h126.13333c6.33533,0 11.46667,-5.13133 11.46667,-11.46667v-91.73333c0,-6.33533 -5.13133,-11.46667 -11.46667,-11.46667zM131.86667,45.86667c6.33533,0 11.46667,5.13133 11.46667,11.46667c0,6.33533 -5.13133,11.46667 -11.46667,11.46667c-6.33533,0 -11.46667,-5.13133 -11.46667,-11.46667c0,-6.33533 5.13133,-11.46667 11.46667,-11.46667zM51.6,68.8112c3.55037,0 7.10037,1.35584 9.80938,4.06485l18.70052,18.70052l5.89011,5.89011l6.62917,6.62917c2.41947,2.41947 6.32611,2.39707 8.74558,-0.02239c2.4252,-2.41947 2.4252,-6.35397 0,-8.77917l-6.60677,-6.59558l4.35599,-4.35599c5.41801,-5.41801 14.20075,-5.41801 19.61876,0l24.59062,24.59062v17.2h-114.66667v-40.13333l13.12396,-13.12396c2.709,-2.70901 6.25901,-4.06485 9.80938,-4.06485z"></path></g></g></svg>